Coordinates
version=1
nRows=5
nColumns=40
inDegrees=yes

Units are S.I. units (second, meters, Newtons, ...)
If the header above contains a line with 'inDegrees', this indicates whether rotational values are in degrees (yes) or radians (no).

endheader
time	pelvis_tilt	pelvis_list	pelvis_rotation	pelvis_tx	pelvis_ty	pelvis_tz	hip_flexion_r	hip_adduction_r	hip_rotation_r	knee_angle_r	knee_angle_r_beta	ankle_angle_r	subtalar_angle_r	mtp_angle_r	hip_flexion_l	hip_adduction_l	hip_rotation_l	knee_angle_l	knee_angle_l_beta	ankle_angle_l	subtalar_angle_l	mtp_angle_l	lumbar_extension	lumbar_bending	lumbar_rotation	arm_flex_r	arm_add_r	arm_rot_r	elbow_flex_r	pro_sup_r	wrist_flex_r	wrist_dev_r	arm_flex_l	arm_add_l	arm_rot_l	elbow_flex_l	pro_sup_l	wrist_flex_l	wrist_dev_l
      5.05000000	     14.04008061	     -9.55918021	     -7.41972573	     -0.31139339	      0.90510858	     -1.02285523	     37.61896622	      7.93325237	    -11.62134597	      8.18186626	      0.14280051	      1.28473544	      0.00000000	      0.00000000	     20.39278792	    -11.90929638	     -9.90177340	     71.84479971	      1.25392831	     25.80094620	      0.00000000	      0.00000000	    -25.26822688	     -0.53446021	      8.92164980	     89.89154375	    -17.78669504	     37.46157064	     32.91752522	     84.93974280	      0.00000000	      0.00000000	     89.93831759	    -19.49080937	     42.13421591	     46.22669287	     86.11271457	      0.00000000	      0.00000000
      5.05500000	     13.96719763	     -9.62579822	     -7.38866802	     -0.31124527	      0.90663819	     -1.02295411	     37.61271642	      7.96925655	    -11.58886984	      8.22844827	      0.14361351	      1.22278060	      0.00000000	      0.00000000	     20.28417607	    -11.96446491	     -9.89290094	     71.48636147	      1.24767238	     25.67314213	      0.00000000	      0.00000000	    -25.18349802	     -0.42520537	      8.93029849	     89.89027687	    -17.83289492	     37.51656484	     32.91548083	     84.94655121	      0.00000000	      0.00000000	     89.93791005	    -19.47689527	     42.18015108	     46.21693596	     86.11610364	      0.00000000	      0.00000000
      5.06000000	     13.89438610	     -9.68475035	     -7.44332626	     -0.31093863	      0.90814629	     -1.02293617	     37.58389198	      8.04997469	    -11.59521846	      8.25207091	      0.14402581	      1.18445625	      0.00000000	      0.00000000	     20.13526787	    -12.02467267	     -9.96249661	     71.12639045	      1.24138970	     25.53661834	      0.00000000	      0.00000000	    -25.07853637	     -0.35959549	      9.00673889	     89.88923045	    -17.87948101	     37.61001675	     32.90773124	     84.95845416	      0.00000000	      0.00000000	     89.93744024	    -19.48854705	     42.28602214	     46.17667318	     86.12473069	      0.00000000	      0.00000000
      5.06500000	     13.86547125	     -9.72457900	     -7.44482512	     -0.31070905	      0.90969180	     -1.02302400	     37.51484888	      8.08135986	    -11.58288197	      8.27652021	      0.14445253	      1.13016342	      0.00000000	      0.00000000	     19.99205293	    -12.05402757	    -10.00982369	     70.81014731	      1.23587021	     25.38711016	      0.00000000	      0.00000000	    -25.01875213	     -0.28960434	      9.04100385	     89.88864700	    -17.93437457	     37.71643766	     32.88267461	     84.97417911	      0.00000000	      0.00000000	     89.93722605	    -19.48589648	     42.38189196	     46.14308566	     86.13211363	      0.00000000	      0.00000000
      5.07000000	     13.99604616	     -9.63402916	     -7.46148166	     -0.31045614	      0.91161270	     -1.02320119	     37.22724513	      8.00071685	    -11.53144824	      8.19085811	      0.14295744	      1.01950006	      0.00000000	      0.00000000	     19.60233245	    -11.92048594	    -10.16597928	     70.36411620	      1.22808550	     25.09556823	      0.00000000	      0.00000000	    -25.10002745	     -0.39464494	      9.03974173	     89.88902392	    -17.99900814	     38.08811329	     32.79587296	     85.00599551	      0.00000000	      0.00000000	     89.93758700	    -19.49359790	     42.59323267	     46.07649685	     86.13852717	      0.00000000	      0.00000000
